<?xml version="1.0" encoding="UTF-8" standalone="no"?>
<svg
   xmlns:dc="http://purl.org/dc/elements/1.1/"
   xmlns:cc="http://creativecommons.org/ns#"
   xmlns:rdf="http://www.w3.org/1999/02/22-rdf-syntax-ns#"
   xmlns:svg="http://www.w3.org/2000/svg"
   xmlns="http://www.w3.org/2000/svg"
   xmlns:sodipodi="http://sodipodi.sourceforge.net/DTD/sodipodi-0.dtd"
   xmlns:inkscape="http://www.inkscape.org/namespaces/inkscape"
   height="70"
   version="1.1"
   viewBox="0 0 165.00001 52.500005"
   width="220"
   id="svg270"
   sodipodi:docname="apsg_banner.svg"
   inkscape:version="0.92.4 (5da689c313, 2019-01-14)">
  <sodipodi:namedview
     pagecolor="#ffffff"
     bordercolor="#666666"
     borderopacity="1"
     objecttolerance="10"
     gridtolerance="10"
     guidetolerance="10"
     inkscape:pageopacity="0"
     inkscape:pageshadow="2"
     inkscape:window-width="1860"
     inkscape:window-height="1016"
     id="namedview55"
     showgrid="false"
     inkscape:zoom="5.4107955"
     inkscape:cx="110"
     inkscape:cy="35"
     inkscape:window-x="60"
     inkscape:window-y="27"
     inkscape:window-maximized="1"
     inkscape:current-layer="svg270" />
  <metadata
     id="metadata274">
    <rdf:RDF>
      <cc:Work
         rdf:about="">
        <dc:format>image/svg+xml</dc:format>
        <dc:type
           rdf:resource="http://purl.org/dc/dcmitype/StillImage" />
        <dc:title />
      </cc:Work>
    </rdf:RDF>
  </metadata>
  <defs
     id="defs4"
     style="stroke-linecap:butt;stroke-linejoin:round">
    <style
       type="text/css"
       id="style2">
*{stroke-linecap:butt;stroke-linejoin:round;}
  </style>
    <style
       id="style1495"
       type="text/css">
*{stroke-linecap:butt;stroke-linejoin:round;}
  </style>
    <path
       id="DejaVuSans-78"
       d="M 9.8125,72.90625 H 23.09375 L 55.421875,11.921875 V 72.90625 h 9.5625 V 0 h -13.28125 l -32.3125,60.984375 V 0 H 9.8125 Z"
       style="stroke-linecap:butt;stroke-linejoin:round" />
    <clipPath
       id="p91f31fb48f"
       style="stroke-linecap:butt;stroke-linejoin:round">
      <rect
         id="rect1594"
         y="51.84"
         x="128.88"
         width="332.64001"
         height="332.64001"
         style="stroke-linecap:butt;stroke-linejoin:round" />
    </clipPath>
  </defs>
  <g
     id="LineCollection_1"
     style="stroke-linecap:butt;stroke-linejoin:round"
     transform="translate(0,-379.49999)" />
  <g
     id="LineCollection_6"
     style="stroke-linecap:butt;stroke-linejoin:round"
     transform="translate(0,-379.49999)" />
  <defs
     id="defs268">
    <clipPath
       id="paeb4244b58"
       style="stroke-linecap:butt;stroke-linejoin:round">
      <rect
         height="332.64001"
         width="332.64001"
         x="128.88"
         y="51.84"
         id="rect262"
         style="stroke-linecap:butt;stroke-linejoin:round" />
    </clipPath>
    <clipPath
       id="p7650f65264"
       style="stroke-linecap:butt;stroke-linejoin:round">
      <rect
         height="266.112"
         width="17.280001"
         x="57.599998"
         y="85.103996"
         id="rect265"
         style="stroke-linecap:butt;stroke-linejoin:round" />
    </clipPath>
  </defs>
  <g
     id="LineCollection_1-3"
     style="stroke-linecap:butt;stroke-linejoin:round"
     transform="translate(493.16739,-903.44126)" />
  <g
     id="LineCollection_6-2"
     style="stroke-linecap:butt;stroke-linejoin:round"
     transform="translate(493.16739,-903.44126)" />
  <g
     id="g1822"
     transform="matrix(0.1616914,0,0,0.1616914,-97.902031,75.692204)"
     style="stroke-width:1.6034559;stroke-linecap:butt;stroke-linejoin:round">
    <g
       transform="translate(493.16739,-523.94127)"
       style="stroke-width:1.6034559;stroke-linecap:butt;stroke-linejoin:round"
       id="patch_2-4">
      <path
         clip-path="url(#p91f31fb48f)"
         d="m 295.2,376.56 c 42.00817,0 82.30145,-16.69002 112.00571,-46.39429 C 436.90998,300.46145 453.6,260.16817 453.6,218.16 453.6,176.15183 436.90998,135.85855 407.20571,106.15429 377.50145,76.450023 337.20817,59.76 295.2,59.76 253.19183,59.76 212.89855,76.450023 183.19429,106.15429 153.49002,135.85855 136.8,176.15183 136.8,218.16 c 0,42.00817 16.69002,82.30145 46.39429,112.00571 C 212.89855,359.86998 253.19183,376.56 295.2,376.56 Z"
         style="fill:#ffffff;stroke:#ffffff;stroke-width:1.6034559;stroke-linecap:butt;stroke-linejoin:miter"
         id="path1502" />
    </g>
    <g
       transform="translate(493.16739,-523.94127)"
       style="stroke-width:1.6034559;stroke-linecap:butt;stroke-linejoin:round"
       id="PathCollection_1-4">
      <path
         clip-path="url(#p91f31fb48f)"
         d="m 402.40099,334.72924 -1.23064,-3.93146 -1.29643,-3.14504 -2.25853,-5.25802 -0.68697,-1.45879 -3.02967,-5.78764 -0.32877,-0.59343 -0.62175,-0.90342 -3.43379,-4.84774 -3.24276,-3.60812 -1.35914,-1.52501 -1.3045,-1.3037 -3.66165,-3.49273 -5.00616,-4.542 -0.0637,-0.0573 -0.0735,-0.056 -5.87976,-3.76698 -2.47478,-1.78955 -3.23044,-2.24511 -4.96996,-3.6692 -0.64013,-0.41382 -5.67207,-3.54882 -0.40756,-0.1746 -1.73996,-0.85002 -4.98455,-2.40037 -1.11595,-0.6202 -4.88988,-1.79222 -0.99274,-0.35688 -0.42515,-0.0167 -6.94832,-0.71509 -5.11467,1.82266 -1.12947,0.32934 -1.01007,0.9526 -3.95356,3.90441 -4.51762,5.09848 -0.15027,0.1782 -0.0961,0.12943 -3.23089,4.03963 -2.88929,3.58051 -0.36374,0.52423 -0.28412,0.43403 -3.68404,5.26845 -1.34953,2.28421 -1.63294,2.78855 -2.51865,3.99043 -0.24151,0.44475 -3.41365,6.21651 -0.37253,0.70697 -0.65746,1.41461 -2.49594,5.37273 -1.2081,3.17213 -1.38005,3.60007 -1.42377,4.09094 -1.10961,2.64576 -2.02597,4.49826 -0.91841,2.17463 -0.61012,1.26277 -2.61301,5.32045 -1.26447,2.38479 -2.04559,4.13087 -2.38634,4.19215 -1.18436,2.24828 -2.51588,4.74104 -0.85087,1.70736 -0.41978,0.94539 -2.66981,5.50196 5.51301,0.92617 6.53934,0.82058 6.56782,0.54785 6.58493,0.27416 h 6.59062 l 6.58493,-0.27416 6.56781,-0.54785 6.53935,-0.82058 6.49955,-1.0919 6.4485,-1.36132 6.38629,-1.6284 6.31302,-1.89265 6.22883,-2.15362 6.13385,-2.41086 6.02825,-2.66394 5.91221,-2.9124 5.78595,-3.15581 5.64967,-3.39377 5.50359,-3.62585 5.348,-3.85166 5.18316,-4.07079 5.00932,-4.28287 m -212.62755,-234.81048 4.65296,1.90788 2.39535,1.03964 3.32433,1.64202 3.44171,1.61531 2.31358,1.41079 4.06696,2.23405 1.59915,1.08805 4.59824,2.77304 1.36466,0.87077 4.5187,3.28274 1.2007,0.88086 4.62482,3.37633 1.44712,1.11343 4.19777,3.31453 1.46975,1.26771 3.64889,3.57543 2.33161,2.15839 2.7853,2.70523 3.2511,3.16585 1.85099,1.72856 4.36872,4.18879 0.78072,0.68651 5.09397,4.49929 0.36892,0.26127 5.93251,4.20009 0.41516,0.20409 5.55972,2.36749 3.83959,1.0781 2.3661,0.79113 2.74555,0.58987 3.65794,0.55762 4.94672,-0.0689 1.51832,-0.16891 4.52706,-0.8388 2.00527,-0.94359 5.33392,-3.66979 1.24762,-1.05984 3.92595,-5.23005 2.61058,-4.49383 0.92436,-1.92683 0.7286,-1.64026 2.3548,-4.73791 1.57494,-5.68949 0.31874,-0.98717 0.63743,-3.15778 0.69553,-3.59995 0.18414,-0.95091 1.17324,-5.7791 0.54574,-2.67031 0.87618,-4.06406 1.03796,-4.76766 0.43428,-1.97749 1.35215,-6.517206 0.0526,-0.252689 0.18348,-1.130765 0.87941,-5.66841 0.13756,-1.128862 0.53019,-5.759568 0.18663,-1.804734 0.45663,-5.086242 0.23603,-2.544299 -5e-5,-4.428261 -0.002,-2.536793 -0.14038,-4.499124 -2.23298,-0.423075 -6.52086,-0.956448 -6.555,-0.684362 L 301.7892,59.89711 295.2,59.76 l -6.5892,0.13711 -6.5778,0.411092 -6.555,0.684362 -6.52085,0.956448 -6.47543,1.226878 -6.41878,1.495184 -6.35103,1.760902 -6.27229,2.02357 -6.18267,2.282737 -6.08237,2.537951 -5.97153,2.788771 -5.85034,3.034763 -5.71905,3.275503 -5.57783,3.510571 -5.42698,3.739561 -5.26672,3.962079 -5.09734,4.177737"
         style="fill:#482475;stroke-width:1.6034559;stroke-linecap:butt;stroke-linejoin:round"
         id="path1505" />
    </g>
    <g
       transform="translate(493.16739,-523.94127)"
       style="stroke-width:1.6034559;stroke-linecap:butt;stroke-linejoin:round"
       id="PathCollection_2-6">
      <path
         clip-path="url(#p91f31fb48f)"
         d="m 266.69959,373.95696 2.66981,-5.50196 0.41978,-0.94539 0.85087,-1.70736 2.51588,-4.74104 1.18436,-2.24828 2.38634,-4.19215 2.04559,-4.13087 1.26447,-2.38479 2.61301,-5.32045 0.61012,-1.26277 0.91841,-2.17463 2.02597,-4.49826 1.10961,-2.64576 1.42377,-4.09094 1.38005,-3.60007 1.2081,-3.17213 2.49594,-5.37273 0.65746,-1.41461 0.37253,-0.70697 3.41365,-6.21651 0.24151,-0.44475 2.51865,-3.99043 1.63294,-2.78855 1.34953,-2.28421 3.68404,-5.26845 0.28412,-0.43403 0.36374,-0.52423 2.88929,-3.58051 3.23089,-4.03963 0.0961,-0.12943 0.15027,-0.1782 4.51762,-5.09848 3.95356,-3.90441 1.01007,-0.9526 1.12947,-0.32934 5.11467,-1.82266 6.94832,0.71509 0.42515,0.0167 0.99274,0.35688 4.88988,1.79222 1.11595,0.6202 4.98455,2.40037 1.73996,0.85002 0.40756,0.1746 5.67207,3.54882 0.64013,0.41382 4.96996,3.6692 3.23044,2.24511 2.47478,1.78955 5.87976,3.76698 0.0735,0.056 0.0637,0.0573 5.00616,4.542 3.66165,3.49273 1.3045,1.3037 1.35914,1.52501 3.24276,3.60812 3.43379,4.84774 0.62175,0.90342 0.32877,0.59343 3.02967,5.78764 0.68697,1.45879 2.25853,5.25802 1.29643,3.14504 1.23064,3.93146 3.04343,-2.8295 4.63597,-4.68446 4.4371,-4.87324 4.23054,-5.05361 4.01665,-5.22522 2.20994,-3.13679 -1.85939,-3.01679 -2.16336,-3.29923 -3.54667,-5.03359 -0.68836,-1.01404 -0.50453,-0.6442 -4.18164,-4.87243 -4.51274,-5.16658 -0.20559,-0.25135 -0.21845,-0.22185 -4.85275,-4.80459 -3.7013,-2.77936 -1.78047,-1.48632 -2.6172,-2.31328 -2.66562,-2.34316 -4.03628,-4.49778 -0.83313,-0.91574 -0.20136,-0.22744 -0.43792,-0.5668 -2.91433,-3.59845 -1.19996,-1.55458 -4.33194,-5.0757 -0.53056,-0.71953 -2.98927,-3.8894 -1.77798,-2.6915 -2.11922,-3.05232 -2.5586,-4.49336 -1.31417,-1.85711 -1.6085,-2.79707 -1.11102,-1.90181 -0.91101,-1.89893 -1.44727,-2.6147 -0.99391,-2.1164 -1.14357,-2.42708 -1.83435,-4.96881 -0.006,-0.0164 -0.0173,-0.0554 -1.9706,-5.64221 -0.49498,-1.88875 -1.02453,-4.26315 -0.48767,-2.42001 -0.81105,-4.08061 -0.31875,-2.02844 -0.66763,-4.84347 -0.11365,-0.80932 -0.22614,-2.30194 -0.47657,-3.14534 -0.1225,-1.02556 -0.60472,-4.23779 -0.30755,-3.42554 -0.16666,-1.59711 -0.17528,-2.50415 -0.47657,-3.35065 -0.42885,-4.89744 -0.21323,-2.26087 -0.0244,-1.08918 -0.50482,-6.65483 -0.0705,-3.04955 -0.16827,-4.46923 0.10137,-4.25904 0.25911,-3.65907 0.56969,-4.13458 0.63647,-4.32289 0.4829,-3.13611 0.8749,-5.5088 0.27504,-1.84807 1.1976,-7.09457 0.025,-0.16002 0.17181,-0.87342 1.21823,-6.18337 0.23084,-1.20288 1.0788,-5.85508 0.54615,-2.873547 0.76381,-4.166229 0.89579,-4.475906 0.43239,-2.537624 1.52048,-6.15332 0.14264,-0.693493 0.50345,-1.698142 1.51981,-4.933774 -1.52485,-0.712121 -6.08237,-2.537951 -6.18267,-2.282737 -6.27229,-2.02357 -6.35103,-1.760902 -6.41878,-1.495184 -4.24245,-0.803803 0.14038,4.499124 0.002,2.536793 5e-5,4.428261 -0.23603,2.544299 -0.45663,5.086242 -0.18663,1.804734 -0.53019,5.759568 -0.13756,1.128862 -0.87941,5.66841 -0.18348,1.130765 -0.0526,0.252689 -1.35215,6.517206 -0.43428,1.97749 -1.03796,4.76766 -0.87618,4.06406 -0.54574,2.67031 -1.17324,5.7791 -0.18414,0.95091 -0.69553,3.59995 -0.63743,3.15778 -0.31874,0.98717 -1.57494,5.68949 -2.3548,4.73791 -0.7286,1.64026 -0.92436,1.92683 -2.61058,4.49383 -3.92595,5.23005 -1.24762,1.05984 -5.33392,3.66979 -2.00527,0.94359 -4.52706,0.8388 -1.51832,0.16891 -4.94672,0.0689 -3.65794,-0.55762 -2.74555,-0.58987 -2.3661,-0.79113 -3.83959,-1.0781 -5.55972,-2.36749 -0.41516,-0.20409 -5.93251,-4.20009 -0.36892,-0.26127 -5.09397,-4.49929 -0.78072,-0.68651 -4.36872,-4.18879 -1.85099,-1.72856 -3.2511,-3.16585 -2.7853,-2.70523 -2.33161,-2.15839 -3.64889,-3.57543 -1.46975,-1.26771 -4.19777,-3.31453 -1.44712,-1.11343 -4.62482,-3.37633 -1.2007,-0.88086 -4.5187,-3.28274 -1.36466,-0.87077 -4.59824,-2.77304 -1.59915,-1.08805 -4.06696,-2.23405 -2.31358,-1.41079 -3.44171,-1.61531 -3.32433,-1.64202 -2.39535,-1.03964 -4.65296,-1.90788 -0.64439,0.57457 -4.73242,4.587 -4.53752,4.77988 -4.33475,4.9645 -4.12449,5.14053 -3.90708,5.30764 -0.29199,0.43333 1.21315,0.30738 5.87095,1.65597 3.53759,1.0924 3.37503,1.13761 6.87934,2.21264 0.0387,0.0112 0.0181,0.008 0.18837,0.0903 5.62591,2.71787 0.5163,0.26831 4.80273,3.07926 1.00994,0.69957 5.0705,4.02377 0.30056,0.25699 3.65821,3.31379 1.35554,1.2345 0.0952,0.0832 4.72016,4.27109 0.39992,0.37753 0.56379,0.53304 4.49829,4.22436 3.04994,3.00539 1.88244,1.89496 2.86601,2.90406 2.00543,2.06552 1.26499,1.3105 3.56606,3.72116 2.637,2.77441 2.20984,2.29285 3.97679,3.85009 1.04622,1.05976 1.57784,1.46279 3.65778,3.17396 2.73526,2.44706 2.39621,2.37232 2.17611,2.12239 2.82117,3.02109 4.20156,5.04435 0.37922,0.46027 0.15851,0.23514 3.50486,4.67531 1.4688,2.39313 1.83264,2.50783 1.77623,3.31336 0.96608,1.69793 2.0493,4.58645 0.52729,1.11393 0.71533,2.14427 1.21891,3.51667 0.14019,0.48048 0.24285,1.21315 1.21272,5.36995 0.4103,3.58566 0.32553,2.47994 0.0824,3.80283 0.0211,2.03977 -0.73638,6.67543 -0.0887,0.54122 -0.16169,0.56419 -1.54301,6.11127 -0.71657,2.15496 -1.29063,4.44612 -1.76044,5.25611 -0.48245,1.31651 -0.38196,0.9536 -1.97533,5.50001 -1.71915,4.12534 -0.92577,2.2641 -2.5131,5.74053 -0.24536,0.59206 -0.38115,0.90504 -2.3038,5.39833 -1.64256,3.15731 -1.52099,3.00638 -3.07068,5.82704 -0.18238,0.34427 -0.0924,0.17819 -1.81135,3.28916 -1.36211,2.48966 -0.0717,0.12197 -3.19668,5.33757 -0.38198,0.61633 -0.8949,1.48101 -2.59939,4.49227 -1.19837,2.02332 -2.32814,3.9615 -1.92576,3.51086 -1.40573,2.55496 -2.35477,5.01338 -0.63076,1.19802 -1.31142,2.40261 -1.96362,3.66931 -0.99016,1.87106 -2.44954,4.13839 4.55481,2.01282 6.13385,2.41086 6.22883,2.15362 6.31302,1.89265 6.38629,1.6284 6.4485,1.36132"
         style="fill:#355f8d;stroke-width:1.6034559;stroke-linecap:butt;stroke-linejoin:round"
         id="path1508" />
    </g>
    <g
       transform="translate(493.16739,-523.94127)"
       style="stroke-width:1.6034559;stroke-linecap:butt;stroke-linejoin:round"
       id="PathCollection_3-0">
      <path
         clip-path="url(#p91f31fb48f)"
         d="m 146.58311,163.43335 2.3573,-0.2514 5.14229,-0.0784 6.39153,0.73227 0.66414,0.085 0.77562,0.17858 6.01317,1.49549 3.61768,1.06709 3.0404,0.85571 6.02058,2.51613 0.30638,0.12282 5.78688,3.3084 0.24045,0.13798 2.84323,1.98807 2.94394,2.07545 0.20407,0.17745 5.49721,4.20393 0.31516,0.2766 2.18201,1.64364 2.7931,2.12698 0.46301,0.30721 5.00446,4.27727 0.65101,0.56876 3.84193,3.57287 1.78429,1.86089 2.59003,2.75792 3.03262,3.34926 1.24007,1.52077 1.96651,2.62154 1.49012,1.97454 1.0482,1.55683 2.74377,3.6662 3.67253,5.40132 0.15143,0.20377 0.14667,0.21558 3.14581,4.94921 1.8246,3.4593 1.04143,2.0731 1.64863,4.71464 0.50937,1.3738 1.11363,4.51534 0.42662,2.07246 0.43456,3.22369 0.25954,3.95262 -0.0753,2.48767 -0.24217,4.30509 -1.10886,5.3832 -0.26415,1.3366 -1.64494,6.81997 -0.29344,1.43399 -1.49053,5.62925 -0.15407,0.59612 -0.0391,0.13034 -0.27507,1.10401 -1.57946,6.46122 -0.1929,0.74309 -1.50633,4.67719 -0.46813,1.48495 -0.0779,0.21529 -0.28058,0.67732 -2.40938,5.93146 -0.80092,1.91978 -2.14718,4.50097 -1.08007,1.94358 -2.36372,4.07769 -3.08198,4.80806 -0.66477,1.02434 -1.61707,2.20564 -2.45354,3.34346 -1.39896,1.82448 -2.70127,3.69297 -3.96311,5.21048 -0.20839,0.3009 -0.2967,0.40005 -3.90254,5.02462 -3.74444,4.33375 -0.76705,0.91923 4.66785,3.36181 5.50359,3.62585 5.64967,3.39377 5.78594,3.15581 5.91222,2.9124 1.47344,0.65112 2.44954,-4.13839 0.99016,-1.87106 1.96362,-3.66931 1.31142,-2.40261 0.63076,-1.19802 2.35477,-5.01338 1.40573,-2.55496 1.92576,-3.51086 2.32814,-3.9615 1.19837,-2.02332 2.59939,-4.49227 0.8949,-1.48101 0.38198,-0.61633 3.19668,-5.33757 0.0717,-0.12197 1.36211,-2.48966 1.81135,-3.28916 0.0924,-0.17819 0.18238,-0.34427 3.07068,-5.82704 1.52099,-3.00638 1.64256,-3.15731 2.3038,-5.39833 0.38115,-0.90504 0.24536,-0.59206 2.5131,-5.74053 0.92577,-2.2641 1.71915,-4.12534 1.97533,-5.50001 0.38196,-0.9536 0.48245,-1.31651 1.76044,-5.25611 1.29063,-4.44612 0.71657,-2.15496 1.54301,-6.11127 0.16169,-0.56419 0.0887,-0.54122 0.73638,-6.67543 -0.0211,-2.03977 -0.0824,-3.80283 -0.32553,-2.47994 -0.4103,-3.58566 -1.21272,-5.36995 -0.24285,-1.21315 -0.14019,-0.48048 -1.21891,-3.51667 -0.71533,-2.14427 -0.52729,-1.11393 -2.0493,-4.58645 -0.96608,-1.69793 -1.77623,-3.31336 -1.83264,-2.50783 -1.4688,-2.39313 -3.50486,-4.67531 -0.15851,-0.23514 -0.37922,-0.46027 -4.20156,-5.04435 -2.82117,-3.02109 -2.17611,-2.12239 -2.39621,-2.37232 -2.73526,-2.44706 -3.65778,-3.17396 -1.57784,-1.46279 -1.04622,-1.05976 -3.97679,-3.85009 -2.20984,-2.29285 -2.637,-2.77441 -3.56606,-3.72116 -1.26499,-1.3105 -2.00543,-2.06552 -2.86601,-2.90406 -1.88244,-1.89496 -3.04994,-3.00539 -4.49829,-4.22436 -0.56379,-0.53304 -0.39992,-0.37753 -4.72016,-4.27109 -0.0952,-0.0832 -1.35554,-1.2345 -3.65821,-3.31379 -0.30056,-0.25699 -5.0705,-4.02377 -1.00994,-0.69957 -4.80273,-3.07926 -0.5163,-0.26831 -5.62591,-2.71787 -0.18837,-0.0903 -0.0181,-0.008 -0.0387,-0.0112 -6.87934,-2.21264 -3.37503,-1.13761 -3.53759,-1.0924 -5.87095,-1.65597 -1.21315,-0.30738 -3.39091,5.03225 -3.45236,5.61406 -3.21583,5.7528 -2.97375,5.88161 -2.7265,6.00021 -2.47454,6.10844 m 296.64949,111.09868 -2.06705,-1.94854 -3.42087,-3.18981 -2.94987,-2.49005 -2.86025,-1.84241 -4.62291,-2.69752 -1.41665,-0.95202 -0.7679,-0.52277 -5.27233,-3.23215 -1.42269,-0.87792 -4.66917,-2.89781 -3.78861,-2.71449 -2.14283,-1.74282 -4.98301,-4.8769 -0.41678,-0.43495 -0.28072,-0.37564 -2.23431,-3.7532 -2.08374,-3.36441 -0.44037,-0.82244 -0.60024,-1.11747 -1.67182,-3.90664 -1.15392,-2.75458 -1.03395,-2.58918 -1.93628,-4.98376 -0.17768,-0.46475 -0.0717,-0.2048 -1.48518,-5.38621 -0.45678,-1.60307 -1.13456,-4.20393 -0.78298,-2.6283 -1.05036,-3.24655 -1.03384,-3.43468 -0.84648,-2.6552 -0.9157,-3.7361 -0.70922,-2.80204 -0.65545,-3.28002 -0.7986,-3.61406 -0.47178,-2.23171 -1.04464,-4.78261 -0.17289,-0.84946 -0.42626,-2.40935 -0.46703,-2.83844 -0.16631,-0.99639 -0.32448,-2.49632 -0.69722,-4.5388 -0.29134,-4.66877 -0.0926,-1.79989 -0.056,-1.18018 -0.43152,-6.19129 -0.12457,-1.7966 7e-4,-0.69073 0.54554,-8.0882 0.17592,-1.0961 1.43773,-7.51747 0.10413,-0.53177 0.5063,-2.63566 0.994,-5.23047 0.23958,-1.07491 1.47021,-6.45801 0.75266,-2.67278 1.2429,-4.53567 2.05988,-5.466425 0.47684,-1.296447 0.80678,-1.69345 2.21935,-4.627574 -1.97297,-1.484241 -5.42698,-3.739561 -5.57783,-3.510571 -5.71905,-3.275503 -5.85034,-3.034763 -4.44668,-2.07665 -1.51981,4.933774 -0.50345,1.698142 -0.14264,0.693493 -1.52048,6.15332 -0.43239,2.537624 -0.89579,4.475906 -0.76381,4.166229 -0.54615,2.873547 -1.0788,5.85508 -0.23084,1.20288 -1.21823,6.18337 -0.17181,0.87342 -0.025,0.16002 -1.1976,7.09457 -0.27504,1.84807 -0.8749,5.5088 -0.4829,3.13611 -0.63647,4.32289 -0.56969,4.13458 -0.25911,3.65907 -0.10137,4.25904 0.16827,4.46923 0.0705,3.04955 0.50482,6.65483 0.0244,1.08918 0.21323,2.26087 0.42885,4.89744 0.47657,3.35065 0.17528,2.50415 0.16666,1.59711 0.30755,3.42554 0.60472,4.23779 0.1225,1.02556 0.47657,3.14534 0.22614,2.30194 0.11365,0.80932 0.66763,4.84347 0.31875,2.02844 0.81105,4.08061 0.48767,2.42001 1.02453,4.26315 0.49498,1.88875 1.9706,5.64221 0.0173,0.0554 0.006,0.0164 1.83435,4.96881 1.14357,2.42708 0.99391,2.1164 1.44727,2.6147 0.91101,1.89893 1.11102,1.90181 1.6085,2.79707 1.31417,1.85711 2.5586,4.49336 2.11922,3.05232 1.77798,2.6915 2.98927,3.8894 0.53056,0.71953 4.33194,5.0757 1.19996,1.55458 2.91433,3.59845 0.43792,0.5668 0.20136,0.22744 0.83313,0.91574 4.03628,4.49778 2.66562,2.34316 2.6172,2.31328 1.78047,1.48632 3.7013,2.77936 4.85275,4.80459 0.21845,0.22185 0.20559,0.25135 4.51274,5.16658 4.18164,4.87243 0.50453,0.6442 0.68836,1.01404 3.54667,5.03359 2.16336,3.29923 1.85939,3.01679 1.58587,-2.25099 3.5684,-5.54101 3.33482,-5.68467 3.09546,-5.81846 2.85074,-5.94219 2.60108,-6.05564"
         style="fill:#21908d;stroke-width:1.6034559;stroke-linecap:butt;stroke-linejoin:round"
         id="path1511" />
    </g>
    <g
       transform="translate(493.16739,-523.94127)"
       style="stroke-width:1.6034559;stroke-linecap:butt;stroke-linejoin:round"
       id="PathCollection_4-7">
      <path
         clip-path="url(#p91f31fb48f)"
         d="m 136.98228,211.19774 4.58185,-1.33211 2.41527,-0.57624 4.82427,-0.0284 2.06262,0.0123 1.20293,-0.12528 5.74298,-0.3101 5.06522,0.24125 1.79342,0.1298 1.66955,0.32138 5.1577,1.21371 5.62522,1.40079 1.16003,0.25546 3.95372,2.07318 2.80806,1.50169 0.64722,0.37539 6.25639,4.16607 0.67771,0.62615 1.47548,1.32545 3.33047,3.06447 1.87033,2.08003 2.44053,3.1926 1.86086,2.96106 1.85974,2.93897 0.78101,1.48225 1.99445,4.66416 0.28323,0.73779 1.9351,5.51298 0.20171,0.67596 1.24294,5.67702 0.22105,2.40586 0.15386,4.07454 -0.0585,5.25332 -0.0499,0.90431 -0.0326,0.55939 -1.47272,7.87668 -0.12931,0.69641 -0.0223,0.0888 -2.09917,6.62596 -0.544,1.36338 -2.29721,5.40743 -0.78347,1.77611 -2.30269,4.46458 -1.13313,2.17067 -0.54145,0.92824 -3.32724,5.08621 -3.66995,4.34592 -0.83284,0.98436 -0.90825,0.999 -3.81274,4.01599 -4.66966,4.52629 -0.30692,0.27275 -0.57151,0.42607 -4.98537,3.65936 2.59332,2.84823 4.63597,4.68446 4.82683,4.48755 5.00932,4.28287 5.18315,4.07079 0.68016,0.48985 0.76705,-0.91923 3.74444,-4.33375 3.90254,-5.02462 0.2967,-0.40005 0.20839,-0.3009 3.96311,-5.21048 2.70127,-3.69297 1.39896,-1.82448 2.45354,-3.34346 1.61707,-2.20564 0.66477,-1.02434 3.08198,-4.80806 2.36372,-4.07769 1.08007,-1.94358 2.14718,-4.50097 0.80092,-1.91978 2.40938,-5.93146 0.28058,-0.67732 0.0779,-0.21529 0.46813,-1.48495 1.50633,-4.67719 0.1929,-0.74309 1.57946,-6.46122 0.27507,-1.10401 0.0391,-0.13034 0.15407,-0.59612 1.49053,-5.62925 0.29344,-1.43399 1.64494,-6.81997 0.26415,-1.3366 1.10886,-5.3832 0.24217,-4.30509 0.0753,-2.48767 -0.25954,-3.95262 -0.43456,-3.22369 -0.42662,-2.07246 -1.11363,-4.51534 -0.50937,-1.3738 -1.64863,-4.71464 -1.04143,-2.0731 -1.8246,-3.4593 -3.14581,-4.94921 -0.14667,-0.21558 -0.15143,-0.20377 -3.67253,-5.40132 -2.74377,-3.6662 -1.0482,-1.55683 -1.49012,-1.97454 -1.96651,-2.62154 -1.24007,-1.52077 -3.03262,-3.34926 -2.59003,-2.75792 -1.78429,-1.86089 -3.84193,-3.57287 -0.65101,-0.56876 -5.00446,-4.27727 -0.46301,-0.30721 -2.7931,-2.12698 -2.18201,-1.64364 -0.31516,-0.2766 -5.49721,-4.20393 -0.20407,-0.17745 -2.94394,-2.07545 -2.84323,-1.98807 -0.24045,-0.13798 -5.78688,-3.3084 -0.30638,-0.12282 -6.02058,-2.51613 -3.0404,-0.85571 -3.61768,-1.06709 -6.01317,-1.49549 -0.77562,-0.17858 -0.66414,-0.085 -6.39153,-0.73227 -5.14229,0.0784 -2.3573,0.2514 -1.6179,4.52636 -1.95821,6.293 -1.69474,6.369 -1.42833,6.43399 -1.15946,6.48784 -0.88856,6.53046 -0.61614,6.56176 m 316.20303,18.57378 -4.49388,-2.10793 -2.30648,-0.78911 -5.55613,-1.46782 -1.2777,-0.67653 -3.51177,-2.76929 -3.41289,-3.03118 -0.72689,-0.81485 -0.81299,-1.05213 -3.11128,-3.76685 -2.93103,-4.59798 -0.31776,-0.55258 -0.10348,-0.27468 -2.22956,-5.13123 -0.56513,-1.81833 -1.44839,-4.00291 -0.91048,-2.69681 -1.2244,-3.20314 -1.24901,-3.35809 -0.90578,-2.69504 -1.37438,-3.64837 -0.89886,-2.46766 -1.31612,-3.68128 -0.94734,-2.58507 -0.97225,-3.32736 -1.05021,-3.25679 -0.69952,-2.45485 -0.97276,-4.50891 -0.17456,-0.95393 -0.34722,-2.31846 -0.54601,-3.93818 -0.27725,-3.39363 -0.24356,-3.92397 -0.0804,-2.9642 0.003,-2.9622 -0.0853,-2.08266 0.6061,-5.52489 0.64032,-3.43796 1.42799,-4.76465 3.15674,-5.39648 0.52689,-0.85935 -0.3789,-0.43395 -4.53752,-4.77988 -4.73242,-4.587 -4.91914,-4.386161 -5.09735,-4.177737 -3.29374,-2.477838 -2.21935,4.627574 -0.80678,1.69345 -0.47684,1.296447 -2.05988,5.466425 -1.2429,4.53567 -0.75266,2.67278 -1.47021,6.45801 -0.23958,1.07491 -0.994,5.23047 -0.5063,2.63566 -0.10413,0.53177 -1.43773,7.51747 -0.17592,1.0961 -0.54554,8.0882 -7e-4,0.69073 0.12457,1.7966 0.43152,6.19129 0.056,1.18018 0.0926,1.79989 0.29134,4.66877 0.69722,4.5388 0.32448,2.49632 0.16631,0.99639 0.46703,2.83844 0.42626,2.40935 0.17289,0.84946 1.04464,4.78261 0.47178,2.23171 0.7986,3.61406 0.65545,3.28002 0.70922,2.80204 0.9157,3.7361 0.84648,2.6552 1.03384,3.43468 1.05036,3.24655 0.78298,2.6283 1.13456,4.20393 0.45678,1.60307 1.48518,5.38621 0.0717,0.2048 0.17768,0.46475 1.93628,4.98376 1.03395,2.58918 1.15392,2.75458 1.67182,3.90664 0.60024,1.11747 0.44037,0.82244 2.08374,3.36441 2.23431,3.7532 0.28072,0.37564 0.41678,0.43495 4.98301,4.8769 2.14283,1.74282 3.78861,2.71449 4.66917,2.89781 1.42269,0.87792 5.27233,3.23215 0.7679,0.52277 1.41665,0.95202 4.62291,2.69752 2.86025,1.84241 2.94987,2.49005 3.42087,3.18981 2.06705,1.94854 0.52492,-1.37744 2.08871,-6.2509 1.82687,-6.33237 1.56187,-6.40288 1.29418,-6.46231 1.02422,-6.51056 0.75252,-6.54752 0.47949,-6.57317"
         style="fill:#44bf70;stroke-width:1.6034559;stroke-linecap:butt;stroke-linejoin:round"
         id="path1514" />
    </g>
    <g
       transform="translate(493.16739,-523.94127)"
       style="stroke-width:1.6034559;stroke-linecap:butt;stroke-linejoin:round"
       id="PathCollection_5-4">
      <path
         clip-path="url(#p91f31fb48f)"
         d="m 177.72629,324.36705 4.98537,-3.65936 0.57151,-0.42607 0.30692,-0.27275 4.66966,-4.52629 3.81274,-4.01599 0.90825,-0.999 0.83284,-0.98436 3.66995,-4.34592 3.32724,-5.08621 0.54145,-0.92824 1.13313,-2.17067 2.30269,-4.46458 0.78347,-1.77611 2.29721,-5.40743 0.544,-1.36338 2.09917,-6.62596 0.0223,-0.0888 0.12931,-0.69641 1.47272,-7.87668 0.0326,-0.55939 0.0499,-0.90431 0.0585,-5.25332 -0.15386,-4.07454 -0.22105,-2.40586 -1.24294,-5.67702 -0.20171,-0.67596 -1.9351,-5.51298 -0.28323,-0.73779 -1.99445,-4.66416 -0.78101,-1.48225 -1.85974,-2.93897 -1.86086,-2.96106 -2.44053,-3.1926 -1.87033,-2.08003 -3.33047,-3.06447 -1.47548,-1.32545 -0.67771,-0.62615 -6.25639,-4.16607 -0.64722,-0.37539 -2.80806,-1.50169 -3.95372,-2.07318 -1.16003,-0.25546 -5.62522,-1.40079 -5.1577,-1.21371 -1.66955,-0.32138 -1.79342,-0.1298 -5.06522,-0.24125 -5.74298,0.3101 -1.20293,0.12528 -2.06262,-0.0123 -4.82427,0.0284 -2.41527,0.57624 -4.58185,1.33211 -0.10515,2.01973 -0.0686,6.59028 0.20565,6.58741 0.47949,6.57317 0.75251,6.54752 1.02423,6.51056 1.29418,6.46231 1.56187,6.40288 1.82687,6.33237 2.08871,6.2509 2.34693,6.15859 2.60108,6.05564 2.85074,5.94219 3.09546,5.81846 3.33482,5.68467 3.5684,5.54101 3.79581,5.38778 4.01665,5.22522 4.23054,5.05361 m 236.82068,-210.38983 -0.52689,0.85935 -3.15674,5.39648 -1.42799,4.76465 -0.64032,3.43796 -0.6061,5.52489 0.0853,2.08266 -0.003,2.9622 0.0804,2.9642 0.24356,3.92397 0.27725,3.39363 0.54601,3.93818 0.34722,2.31846 0.17456,0.95393 0.97276,4.50891 0.69952,2.45485 1.05021,3.25679 0.97225,3.32736 0.94734,2.58507 1.31612,3.68128 0.89886,2.46766 1.37438,3.64837 0.90578,2.69504 1.24901,3.35809 1.2244,3.20314 0.91048,2.69681 1.44839,4.00291 0.56513,1.81833 2.22956,5.13123 0.10348,0.27468 0.31776,0.55258 2.93103,4.59798 3.11128,3.76685 0.81299,1.05213 0.72689,0.81485 3.41289,3.03118 3.51177,2.76929 1.2777,0.67653 5.55613,1.46782 2.30648,0.78911 4.49388,2.10793 0.16863,-5.40179 -0.0686,-6.59028 -0.34264,-6.58171 -0.61614,-6.56176 -0.88857,-6.53046 -1.15945,-6.48784 -1.42833,-6.43399 -1.69474,-6.369 -1.95821,-6.293 -2.2183,-6.20608 -2.47454,-6.10844 -2.7265,-6.00021 -2.97375,-5.88161 -3.21583,-5.7528 -3.45236,-5.61406 -3.6829,-5.46558 -3.90708,-5.30764 -4.12449,-5.14053"
         style="fill:#bddf26;stroke-width:1.6034559;stroke-linecap:butt;stroke-linejoin:round"
         id="path1517" />
    </g>
    <g
       transform="translate(493.16739,-523.94127)"
       style="stroke-width:1.6034559;stroke-linecap:butt;stroke-linejoin:round"
       id="LineCollection_2-7">
      <path
         clip-path="url(#p91f31fb48f)"
         d="m 266.69959,373.95696 2.66981,-5.50196 0.41978,-0.94539 0.85087,-1.70736 2.51588,-4.74104 1.18436,-2.24828 2.38634,-4.19215 2.04559,-4.13087 1.26447,-2.38479 2.61301,-5.32045 0.61012,-1.26277 0.91841,-2.17463 2.02597,-4.49826 1.10961,-2.64576 1.42377,-4.09094 1.38005,-3.60007 1.2081,-3.17213 2.49594,-5.37273 0.65746,-1.41461 0.37253,-0.70697 3.41365,-6.21651 0.24151,-0.44475 2.51865,-3.99043 1.63294,-2.78855 1.34953,-2.28421 3.68404,-5.26845 0.28412,-0.43403 0.36374,-0.52423 2.88929,-3.58051 3.23089,-4.03963 0.0961,-0.12943 0.15027,-0.1782 4.51762,-5.09848 3.95356,-3.90441 1.01007,-0.9526 1.12947,-0.32934 5.11467,-1.82266 6.94832,0.71509 0.42515,0.0167 0.99274,0.35688 4.88988,1.79222 1.11595,0.6202 4.98455,2.40037 1.73996,0.85002 0.40756,0.1746 5.67207,3.54882 0.64013,0.41382 4.96996,3.6692 3.23044,2.24511 2.47478,1.78955 5.87976,3.76698 0.0735,0.056 0.0637,0.0573 5.00616,4.542 3.66165,3.49273 1.3045,1.3037 1.35914,1.52501 3.24276,3.60812 3.43379,4.84774 0.62175,0.90342 0.32877,0.59343 3.02967,5.78764 0.68697,1.45879 2.25853,5.25802 1.29643,3.14504 1.23064,3.93146"
         style="fill:none;stroke:#000000;stroke-width:2.40518403;stroke-linecap:butt;stroke-linejoin:round;stroke-dasharray:8.89917991, 3.84829402;stroke-dashoffset:0"
         id="path1521" />
      <path
         clip-path="url(#p91f31fb48f)"
         d="m 323.67583,62.372087 0.14038,4.499124 0.002,2.536793 5e-5,4.428261 -0.23603,2.544299 -0.45663,5.086242 -0.18663,1.804734 -0.53019,5.759568 -0.13756,1.128862 -0.87941,5.66841 -0.18348,1.130765 -0.0526,0.252689 -1.35215,6.517206 -0.43428,1.97749 -1.03796,4.76766 -0.87618,4.06406 -0.54574,2.67031 -1.17324,5.7791 -0.18414,0.95091 -0.69553,3.59995 -0.63743,3.15778 -0.31874,0.98717 -1.57494,5.68949 -2.3548,4.73791 -0.7286,1.64026 -0.92436,1.92683 -2.61058,4.49383 -3.92595,5.23005 -1.24762,1.05984 -5.33392,3.66979 -2.00527,0.94359 -4.52706,0.8388 -1.51832,0.16891 -4.94672,0.0689 -3.65794,-0.55762 -2.74555,-0.58987 -2.3661,-0.79113 -3.83959,-1.0781 -5.55972,-2.36749 -0.41516,-0.20409 -5.93251,-4.20009 -0.36892,-0.26127 -5.09397,-4.49929 -0.78072,-0.68651 -4.36872,-4.18879 -1.85099,-1.72856 -3.2511,-3.16585 -2.7853,-2.70523 -2.33161,-2.15839 -3.64889,-3.57543 -1.46975,-1.26771 -4.19777,-3.31453 -1.44712,-1.11343 -4.62482,-3.37633 -1.2007,-0.88086 -4.5187,-3.28274 -1.36466,-0.87077 -4.59824,-2.77304 -1.59915,-1.08805 -4.06696,-2.23405 -2.31358,-1.41079 -3.44171,-1.61531 -3.32433,-1.64202 -2.39535,-1.03964 -4.65296,-1.90788"
         style="fill:none;stroke:#000000;stroke-width:2.40518403;stroke-linecap:butt;stroke-linejoin:round;stroke-dasharray:8.89917991, 3.84829402;stroke-dashoffset:0"
         id="path1523" />
    </g>
    <g
       transform="translate(493.16739,-523.94127)"
       style="stroke-width:1.6034559;stroke-linecap:butt;stroke-linejoin:round"
       id="LineCollection_3-9">
      <path
         clip-path="url(#p91f31fb48f)"
         d="m 229.64775,362.33156 2.44954,-4.13839 0.99016,-1.87106 1.96362,-3.66931 1.31142,-2.40261 0.63076,-1.19802 2.35477,-5.01338 1.40573,-2.55496 1.92576,-3.51086 2.32814,-3.9615 1.19837,-2.02332 2.59939,-4.49227 0.8949,-1.48101 0.38198,-0.61633 3.19668,-5.33757 0.0717,-0.12197 1.36211,-2.48966 1.81135,-3.28916 0.0924,-0.17819 0.18238,-0.34427 3.07068,-5.82704 1.52099,-3.00638 1.64256,-3.15731 2.3038,-5.39833 0.38115,-0.90504 0.24536,-0.59206 2.5131,-5.74053 0.92577,-2.2641 1.71915,-4.12534 1.97533,-5.50001 0.38196,-0.9536 0.48245,-1.31651 1.76044,-5.25611 1.29063,-4.44612 0.71657,-2.15496 1.54301,-6.11127 0.16169,-0.56419 0.0887,-0.54122 0.73638,-6.67543 -0.0211,-2.03977 -0.0824,-3.80283 -0.32553,-2.47994 -0.4103,-3.58566 -1.21272,-5.36995 -0.24285,-1.21315 -0.14019,-0.48048 -1.21891,-3.51667 -0.71533,-2.14427 -0.52729,-1.11393 -2.0493,-4.58645 -0.96608,-1.69793 -1.77623,-3.31336 -1.83264,-2.50783 -1.4688,-2.39313 -3.50486,-4.67531 -0.15851,-0.23514 -0.37922,-0.46027 -4.20156,-5.04435 -2.82117,-3.02109 -2.17611,-2.12239 -2.39621,-2.37232 -2.73526,-2.44706 -3.65778,-3.17396 -1.57784,-1.46279 -1.04622,-1.05976 -3.97679,-3.85009 -2.20984,-2.29285 -2.637,-2.77441 -3.56606,-3.72116 -1.26499,-1.3105 -2.00543,-2.06552 -2.86601,-2.90406 -1.88244,-1.89496 -3.04994,-3.00539 -4.49829,-4.22436 -0.56379,-0.53304 -0.39992,-0.37753 -4.72016,-4.27109 -0.0952,-0.0832 -1.35554,-1.2345 -3.65821,-3.31379 -0.30056,-0.25699 -5.0705,-4.02377 -1.00994,-0.69957 -4.80273,-3.07926 -0.5163,-0.26831 -5.62591,-2.71787 -0.18837,-0.0903 -0.0181,-0.008 -0.0387,-0.0112 -6.87934,-2.21264 -3.37503,-1.13761 -3.53759,-1.0924 -5.87095,-1.65597 -1.21315,-0.30738"
         style="fill:none;stroke:#000000;stroke-width:2.40518403;stroke-linecap:butt;stroke-linejoin:round;stroke-dasharray:8.89917991, 3.84829402;stroke-dashoffset:0"
         id="path1526" />
      <path
         clip-path="url(#p91f31fb48f)"
         d="m 360.75027,73.988355 -1.51981,4.933774 -0.50345,1.698142 -0.14264,0.693493 -1.52048,6.15332 -0.43239,2.537624 -0.89579,4.475906 -0.76381,4.166229 -0.54615,2.873547 -1.0788,5.85508 -0.23084,1.20288 -1.21823,6.18337 -0.17181,0.87342 -0.025,0.16002 -1.1976,7.09457 -0.27504,1.84807 -0.8749,5.5088 -0.4829,3.13611 -0.63647,4.32289 -0.56969,4.13458 -0.25911,3.65907 -0.10137,4.25904 0.16827,4.46923 0.0705,3.04955 0.50482,6.65483 0.0244,1.08918 0.21323,2.26087 0.42885,4.89744 0.47657,3.35065 0.17528,2.50415 0.16666,1.59711 0.30755,3.42554 0.60472,4.23779 0.1225,1.02556 0.47657,3.14534 0.22614,2.30194 0.11365,0.80932 0.66763,4.84347 0.31875,2.02844 0.81105,4.08061 0.48767,2.42001 1.02453,4.26315 0.49498,1.88875 1.9706,5.64221 0.0173,0.0554 0.006,0.0164 1.83435,4.96881 1.14357,2.42708 0.99391,2.1164 1.44727,2.6147 0.91101,1.89893 1.11102,1.90181 1.6085,2.79707 1.31417,1.85711 2.5586,4.49336 2.11922,3.05232 1.77798,2.6915 2.98927,3.8894 0.53056,0.71953 4.33194,5.0757 1.19996,1.55458 2.91433,3.59845 0.43792,0.5668 0.20136,0.22744 0.83313,0.91574 4.03628,4.49778 2.66562,2.34316 2.6172,2.31328 1.78047,1.48632 3.7013,2.77936 4.85275,4.80459 0.21845,0.22185 0.20559,0.25135 4.51274,5.16658 4.18164,4.87243 0.50453,0.6442 0.68836,1.01404 3.54667,5.03359 2.16336,3.29923 1.85939,3.01679"
         style="fill:none;stroke:#000000;stroke-width:2.40518403;stroke-linecap:butt;stroke-linejoin:round;stroke-dasharray:8.89917991, 3.84829402;stroke-dashoffset:0"
         id="path1528" />
    </g>
    <g
       transform="translate(493.16739,-523.94127)"
       style="stroke-width:1.6034559;stroke-linecap:butt;stroke-linejoin:round"
       id="LineCollection_4-0">
      <path
         clip-path="url(#p91f31fb48f)"
         d="m 200.65504,345.2308 0.76705,-0.91923 3.74444,-4.33375 3.90254,-5.02462 0.2967,-0.40005 0.20839,-0.3009 3.96311,-5.21048 2.70127,-3.69297 1.39896,-1.82448 2.45354,-3.34346 1.61707,-2.20564 0.66477,-1.02434 3.08198,-4.80806 2.36372,-4.07769 1.08007,-1.94358 2.14718,-4.50097 0.80092,-1.91978 2.40938,-5.93146 0.28058,-0.67732 0.0779,-0.21529 0.46813,-1.48495 1.50633,-4.67719 0.1929,-0.74309 1.57946,-6.46122 0.27507,-1.10401 0.0391,-0.13034 0.15407,-0.59612 1.49053,-5.62925 0.29344,-1.43399 1.64494,-6.81997 0.26415,-1.3366 1.10886,-5.3832 0.24217,-4.30509 0.0753,-2.48767 -0.25954,-3.95262 -0.43456,-3.22369 -0.42662,-2.07246 -1.11363,-4.51534 -0.50937,-1.3738 -1.64863,-4.71464 -1.04143,-2.0731 -1.8246,-3.4593 -3.14581,-4.94921 -0.14667,-0.21558 -0.15143,-0.20377 -3.67253,-5.40132 -2.74377,-3.6662 -1.0482,-1.55683 -1.49012,-1.97454 -1.96651,-2.62154 -1.24007,-1.52077 -3.03262,-3.34926 -2.59003,-2.75792 -1.78429,-1.86089 -3.84193,-3.57287 -0.65101,-0.56876 -5.00446,-4.27727 -0.46301,-0.30721 -2.7931,-2.12698 -2.18201,-1.64364 -0.31516,-0.2766 -5.49721,-4.20393 -0.20407,-0.17745 -2.94394,-2.07545 -2.84323,-1.98807 -0.24045,-0.13798 -5.78688,-3.3084 -0.30638,-0.12282 -6.02058,-2.51613 -3.0404,-0.85571 -3.61768,-1.06709 -6.01317,-1.49549 -0.77562,-0.17858 -0.66414,-0.085 -6.39153,-0.73227 -5.14229,0.0784 -2.3573,0.2514"
         style="fill:none;stroke:#000000;stroke-width:2.40518403;stroke-linecap:butt;stroke-linejoin:round"
         id="path1531" />
      <path
         clip-path="url(#p91f31fb48f)"
         d="m 389.74412,91.109644 -2.21935,4.627574 -0.80678,1.69345 -0.47684,1.296447 -2.05988,5.466425 -1.2429,4.53567 -0.75266,2.67278 -1.47021,6.45801 -0.23958,1.07491 -0.994,5.23047 -0.5063,2.63566 -0.10413,0.53177 -1.43773,7.51747 -0.17592,1.0961 -0.54554,8.0882 -7e-4,0.69073 0.12457,1.7966 0.43152,6.19129 0.056,1.18018 0.0926,1.79989 0.29134,4.66877 0.69722,4.5388 0.32448,2.49632 0.16631,0.99639 0.46703,2.83844 0.42626,2.40935 0.17289,0.84946 1.04464,4.78261 0.47178,2.23171 0.7986,3.61406 0.65545,3.28002 0.70922,2.80204 0.9157,3.7361 0.84648,2.6552 1.03384,3.43468 1.05036,3.24655 0.78298,2.6283 1.13456,4.20393 0.45678,1.60307 1.48518,5.38621 0.0717,0.2048 0.17768,0.46475 1.93628,4.98376 1.03395,2.58918 1.15392,2.75458 1.67182,3.90664 0.60024,1.11747 0.44037,0.82244 2.08374,3.36441 2.23431,3.7532 0.28072,0.37564 0.41678,0.43495 4.98301,4.8769 2.14283,1.74282 3.78861,2.71449 4.66917,2.89781 1.42269,0.87792 5.27233,3.23215 0.7679,0.52277 1.41665,0.95202 4.62291,2.69752 2.86025,1.84241 2.94987,2.49005 3.42087,3.18981 2.06705,1.94854"
         style="fill:none;stroke:#000000;stroke-width:2.40518403;stroke-linecap:butt;stroke-linejoin:round"
         id="path1533" />
    </g>
    <g
       transform="translate(493.16739,-523.94127)"
       style="stroke-width:1.6034559;stroke-linecap:butt;stroke-linejoin:round"
       id="LineCollection_5-0">
      <path
         clip-path="url(#p91f31fb48f)"
         d="m 177.72629,324.36705 4.98537,-3.65936 0.57151,-0.42607 0.30692,-0.27275 4.66966,-4.52629 3.81274,-4.01599 0.90825,-0.999 0.83284,-0.98436 3.66995,-4.34592 3.32724,-5.08621 0.54145,-0.92824 1.13313,-2.17067 2.30269,-4.46458 0.78347,-1.77611 2.29721,-5.40743 0.544,-1.36338 2.09917,-6.62596 0.0223,-0.0888 0.12931,-0.69641 1.47272,-7.87668 0.0326,-0.55939 0.0499,-0.90431 0.0585,-5.25332 -0.15386,-4.07454 -0.22105,-2.40586 -1.24294,-5.67702 -0.20171,-0.67596 -1.9351,-5.51298 -0.28323,-0.73779 -1.99445,-4.66416 -0.78101,-1.48225 -1.85974,-2.93897 -1.86086,-2.96106 -2.44053,-3.1926 -1.87033,-2.08003 -3.33047,-3.06447 -1.47548,-1.32545 -0.67771,-0.62615 -6.25639,-4.16607 -0.64722,-0.37539 -2.80806,-1.50169 -3.95372,-2.07318 -1.16003,-0.25546 -5.62522,-1.40079 -5.1577,-1.21371 -1.66955,-0.32138 -1.79342,-0.1298 -5.06522,-0.24125 -5.74298,0.3101 -1.20293,0.12528 -2.06262,-0.0123 -4.82427,0.0284 -2.41527,0.57624 -4.58185,1.33211"
         style="fill:none;stroke:#000000;stroke-width:2.40518403;stroke-linecap:butt;stroke-linejoin:round"
         id="path1536" />
      <path
         clip-path="url(#p91f31fb48f)"
         d="m 412.70319,111.95221 -0.52689,0.85935 -3.15674,5.39648 -1.42799,4.76465 -0.64032,3.43796 -0.6061,5.52489 0.0853,2.08266 -0.003,2.9622 0.0804,2.9642 0.24356,3.92397 0.27725,3.39363 0.54601,3.93818 0.34722,2.31846 0.17456,0.95393 0.97276,4.50891 0.69952,2.45485 1.05021,3.25679 0.97225,3.32736 0.94734,2.58507 1.31612,3.68128 0.89886,2.46766 1.37438,3.64837 0.90578,2.69504 1.24901,3.35809 1.2244,3.20314 0.91048,2.69681 1.44839,4.00291 0.56513,1.81833 2.22956,5.13123 0.10348,0.27468 0.31776,0.55258 2.93103,4.59798 3.11128,3.76685 0.81299,1.05213 0.72689,0.81485 3.41289,3.03118 3.51177,2.76929 1.2777,0.67653 5.55613,1.46782 2.30648,0.78911 4.49388,2.10793"
         style="fill:none;stroke:#000000;stroke-width:2.40518403;stroke-linecap:butt;stroke-linejoin:round"
         id="path1538" />
    </g>
    <g
       transform="translate(493.16739,-523.94127)"
       style="stroke-width:1.6034559;stroke-linecap:butt;stroke-linejoin:round"
       id="patch_3-2">
      <path
         clip-path="url(#p91f31fb48f)"
         d="m 295.2,376.56 c 42.00817,0 82.30145,-16.69002 112.00571,-46.39429 C 436.90998,300.46145 453.6,260.16817 453.6,218.16 453.6,176.15183 436.90998,135.85855 407.20571,106.15429 377.50145,76.450023 337.20817,59.76 295.2,59.76 253.19183,59.76 212.89855,76.450023 183.19429,106.15429 153.49002,135.85855 136.8,176.15183 136.8,218.16 c 0,42.00817 16.69002,82.30145 46.39429,112.00571 C 212.89855,359.86998 253.19183,376.56 295.2,376.56 Z"
         style="fill:none;stroke:#000000;stroke-width:4.6384654;stroke-linecap:butt;stroke-linejoin:miter"
         id="path1550" />
    </g>
    <g
       transform="translate(493.16739,-523.94127)"
       style="stroke-width:1.6034559;stroke-linecap:butt;stroke-linejoin:round"
       id="line2d_13" />
  </g>
  <text
     xml:space="preserve"
     style="font-style:normal;font-variant:normal;font-weight:normal;font-stretch:normal;font-size:24.69768906px;line-height:1.25;font-family:Carlito;-inkscape-font-specification:Carlito;letter-spacing:0px;word-spacing:0px;fill:#000000;fill-opacity:1;stroke:none;stroke-width:0.82790732;stroke-linecap:butt;stroke-linejoin:round"
     x="60.334393"
     y="21.341698"
     id="text1487"><tspan
       id="tspan1485"
       style="font-style:normal;font-variant:normal;font-weight:500;font-stretch:normal;font-family:'Fira Sans';-inkscape-font-specification:'Fira Sans Medium';stroke-width:0.82790732;stroke-linecap:butt;stroke-linejoin:round"
       x="60.334393"
       y="21.341698">APSG</tspan></text>
  <g
     style="stroke-linecap:butt;stroke-linejoin:round"
     transform="translate(0.2618247,-10.373529)"
     id="g874">
    <text
       id="text1493"
       y="44.688385"
       x="57.865421"
       style="font-style:normal;font-variant:normal;font-weight:normal;font-stretch:normal;font-size:11.24814415px;line-height:6em;font-family:Carlito;-inkscape-font-specification:Carlito;text-align:start;letter-spacing:0px;word-spacing:0px;text-anchor:start;fill:#000000;fill-opacity:1;stroke:none;stroke-width:0.84361088;stroke-linecap:butt;stroke-linejoin:round"
       xml:space="preserve"><tspan
         id="tspan1824"
         y="44.688385"
         x="57.865421"
         style="font-style:normal;font-variant:normal;font-weight:normal;font-stretch:normal;font-family:'Fira Sans Compressed';-inkscape-font-specification:'Fira Sans Compressed';text-align:start;text-anchor:start;stroke-width:0.84361088;stroke-linecap:butt;stroke-linejoin:round">A Python package for</tspan></text>
    <text
       y="56.583797"
       x="57.842926"
       style="font-style:normal;font-variant:normal;font-weight:normal;font-stretch:normal;font-size:11.24814415px;line-height:1em;font-family:Carlito;-inkscape-font-specification:Carlito;text-align:start;letter-spacing:0px;word-spacing:0px;text-anchor:start;fill:#000000;fill-opacity:1;stroke:none;stroke-width:0.84361088;stroke-linecap:butt;stroke-linejoin:round"
       xml:space="preserve"
       id="text866"><tspan
         y="56.583797"
         x="57.842926"
         style="font-style:normal;font-variant:normal;font-weight:normal;font-stretch:normal;line-height:1em;font-family:'Fira Sans Compressed';-inkscape-font-specification:'Fira Sans Compressed';text-align:start;text-anchor:start;stroke-width:0.84361088;stroke-linecap:butt;stroke-linejoin:round"
         id="tspan868">structural geologists</tspan></text>
  </g>
  <path
     style="fill:none;stroke:#999999;stroke-width:0.375;stroke-linecap:butt;stroke-linejoin:miter;stroke-opacity:1"
     d="M 58.268734,25.041855 H 161.41673"
     id="path1828" />
</svg>
